<svg width="28" height="24" viewBox="0 0 28 24" fill="none" xmlns="http://www.w3.org/2000/svg">
<path d="M13.8934 2.87762L14 3.00238L14.1065 2.87762C16.4139 0.176954 20.682 -0.917993 24.1342 1.43563C25.9636 2.69015 27.1147 4.80875 27.1932 7.03151C27.2782 9.57066 26.2003 11.8682 24.2142 14.3319C22.2259 16.7981 19.3421 19.4134 15.8391 22.5894L15.839 22.5895L15.6923 22.7228L15.6917 22.7235C14.7319 23.6074 13.254 23.6075 12.2942 22.7361L12.2937 22.7357L12.1609 22.6161L12.1604 22.6157L12.0879 22.5499C8.61775 19.397 5.75689 16.7977 3.78076 14.3469C1.79281 11.8814 0.715108 9.58395 0.806721 7.04495L0.806726 7.04481C0.885192 4.80853 2.03654 2.68994 3.86591 1.43551C7.31763 -0.931003 11.5857 0.176581 13.8934 2.87762ZM13.9008 20.9657L14 21.0648L14.0991 20.9657L14.2299 20.8348C17.3997 17.9647 20.0399 15.5721 21.8865 13.4144C23.7322 11.2577 24.8068 9.31164 24.8068 7.33323C24.8068 4.58914 22.744 2.52638 20 2.52638C17.9267 2.52638 15.9038 3.83526 15.1577 5.67304H12.8549C12.0963 3.83572 10.0738 2.52638 7.99996 2.52638C5.25587 2.52638 3.1931 4.58914 3.1931 7.33323C3.1931 9.31164 4.2677 11.2577 6.11345 13.4144C7.96006 15.5721 10.6002 17.9647 13.77 20.8348L13.9008 20.9657Z" fill="#77777E" stroke="white" stroke-width="0.280374"/>
</svg>
