<svg width="28" height="28" viewBox="0 0 28 28" fill="none" xmlns="http://www.w3.org/2000/svg">
<path d="M14 0L13.6083 0.00538189C6.06119 0.213028 0 6.40298 0 14C0 21.714 6.272 28 14 28C21.714 28 28 21.714 28 14C28 6.272 21.714 0 14 0ZM11.228 8.4C11.648 7.98 12.306 7.98 12.712 8.4L17.598 13.258C17.794 13.454 17.906 13.72 17.906 14C17.906 14.28 17.794 14.546 17.598 14.742L12.712 19.6C12.516 19.81 12.25 19.908 11.984 19.908C11.704 19.908 11.438 19.81 11.228 19.6C10.822 19.18 10.822 18.522 11.242 18.116L15.372 14L11.242 9.884C10.822 9.478 10.822 8.806 11.228 8.4Z" fill="#00B5B7"/>
</svg>
